<?xml version="1.0" standalone="no"?><!DOCTYPE svg PUBLIC "-//W3C//DTD SVG 1.1//EN" "http://www.w3.org/Graphics/SVG/1.1/DTD/svg11.dtd"><svg class="icon" width="200px" height="200.00px" viewBox="0 0 1024 1024" version="1.1" xmlns="http://www.w3.org/2000/svg"><path d="M0 0h1024v1024H0z" fill="#FFFFFF" fill-opacity="0" /><path d="M512 85.333333c235.633778 0 426.666667 191.032889 426.666667 426.666667 0 235.633778-191.032889 426.666667-426.666667 426.666667-49.720889 0-97.422222-8.504889-141.795556-24.120889-75.719111 23.608889-119.409778 29.866667-131.043555 18.830222-8.903111-8.448-12.686222-42.808889-11.349333-103.082667A425.728 425.728 0 0 1 85.333333 512C85.333333 276.366222 276.366222 85.333333 512 85.333333z" fill="#0AC9AA" /><path d="M705.422222 768H347.022222c-18.858667 0-34.133333-15.189333-34.133333-33.934222V318.378667c0-18.744889 15.274667-33.934222 34.133333-33.934223h358.4c18.858667 0 34.133333 15.189333 34.133334 33.934223v415.687111c0 18.744889-15.274667 33.934222-34.133334 33.934222" fill="#FFFFFF" /><path d="M450.275556 482.332444c6.826667-0.568889 13.368889 2.730667 16.668444 8.362667l55.893333 95.829333 41.500445-54.414222a17.066667 17.066667 0 0 1 14.336-6.741333c5.688889 0.085333 10.951111 2.759111 14.08 7.196444l17.92 25.088h59.818666a19.626667 19.626667 0 0 1 0.711112-0.028444c9.528889-0.455111 17.635556 6.428444 18.090666 15.36 0.483556 8.931556-6.855111 16.526222-16.384 16.981333h-71.480889a17.607111 17.607111 0 0 1-14.364444-7.196444l-9.102222-12.8-43.008 56.32a17.635556 17.635556 0 0 1-14.108445 6.684444h-1.024a17.408 17.408 0 0 1-14.136889-8.362666l-50.062222-85.873778-10.467555 29.411555a17.208889 17.208889 0 0 1-16.384 11.036445h-46.023112a18.204444 18.204444 0 0 1-2.531555 0c-9.500444-0.654222-16.64-8.419556-15.928889-17.351111 0.682667-8.903111 8.96-15.587556 18.460444-14.933334h33.564445l19.114667-53.560889a17.095111 17.095111 0 0 1 14.848-11.008z m224.625777-53.475555c7.964444 0.028444 14.421333 8.476444 14.421334 18.887111 0 10.382222-6.485333 18.830222-14.449778 18.830222h-125.127111c-7.964444 0-14.421333-8.448-14.421334-18.858666 0-10.410667 6.485333-18.830222 14.449778-18.830223z m-214.869333-94.151111c13.226667 0 23.950222 11.235556 23.950222 25.088v62.805333c0 13.880889-10.723556 25.116444-23.950222 25.116445h-71.850667c-13.226667 0-23.950222-11.235556-23.950222-25.116445V359.822222c0-13.852444 10.723556-25.116444 23.950222-25.116444z m211.342222 21.959111c9.898667 0 17.948444 8.448 17.948445 18.830222 0 10.410667-8.049778 18.858667-17.976889 18.858667h-83.825778c-9.955556 0-17.976889-8.448-17.976889-18.858667 0-10.382222 8.049778-18.830222 17.976889-18.830222z" fill="#0AC9AA" /></svg>