<?xml version="1.0" standalone="no"?><!DOCTYPE svg PUBLIC "-//W3C//DTD SVG 1.1//EN" "http://www.w3.org/Graphics/SVG/1.1/DTD/svg11.dtd"><svg class="icon" width="200px" height="200.00px" viewBox="0 0 1024 1024" version="1.1" xmlns="http://www.w3.org/2000/svg"><path d="M0 0h1024v1024H0z" fill="#FFFFFF" fill-opacity="0" /><path d="M512 56.888889C260.494222 56.888889 56.888889 260.494222 56.888889 512c0 251.505778 203.605333 455.111111 455.111111 455.111111 251.505778 0 455.111111-203.605333 455.111111-455.111111 0-251.505778-203.605333-455.111111-455.111111-455.111111z" fill="#0AC9AA" /><path d="M654.222222 426.666667m-85.333333 0a85.333333 85.333333 0 1 0 170.666667 0 85.333333 85.333333 0 1 0-170.666667 0Z" fill="#FFFFFF" /><path d="M736.056889 727.978667c-7.139556 17.265778-21.134222 29.468444-46.165333 44.088889l-19.626667 11.576888c-57.770667 35.726222-190.577778-45.852444-285.838222-185.770666-95.573333-139.946667-120.576-289.393778-61.923556-325.717334l7.736889-5.063111 8.334222-5.376c29.781333-19.057778 48.526222-26.794667 71.168-22.926222 22.328889 3.868444 41.671111 20.565333 57.742222 50.631111 33.962667 64 26.510222 94.378667-17.265777 122.055111-3.271111 2.104889-14.279111 8.931556-15.473778 9.528889-10.723556 6.542222 7.452444 51.2 49.720889 113.152 43.178667 63.431111 78.904889 97.649778 90.823111 90.197334l15.473778-9.528889c5.063111-3.271111 10.410667-5.944889 16.071111-8.618667 34.844444-15.786667 65.792-4.778667 106.296889 42.865778 25.315556 29.468444 32.739556 55.694222 22.926222 78.904889z" fill="#FFFFFF" /></svg>