<?xml version="1.0" standalone="no"?><!DOCTYPE svg PUBLIC "-//W3C//DTD SVG 1.1//EN" "http://www.w3.org/Graphics/SVG/1.1/DTD/svg11.dtd"><svg class="icon" width="200px" height="200.00px" viewBox="0 0 1024 1024" version="1.1" xmlns="http://www.w3.org/2000/svg"><path d="M0 0h1024v1024H0z" fill="#FFFFFF" fill-opacity="0" /><path d="M0 0h1024v1024H0z" fill="#FFFFFF" fill-opacity="0" /><path d="M512 512m-455.111111 0a455.111111 455.111111 0 1 0 910.222222 0 455.111111 455.111111 0 1 0-910.222222 0Z" fill="#0AC9AA" /><path d="M576.170667 811.036444a47.786667 47.786667 0 0 1-47.786667-47.786666l-0.028444-143.445334a30.037333 30.037333 0 0 0-18.289778-6.172444c-6.656 0-13.312 2.076444-19.968 6.172444v143.416889a47.786667 47.786667 0 1 1-95.601778 0V463.530667l-127.288889-127.260445a38.257778 38.257778 0 0 1 54.072889-54.101333l108.174222 108.174222c14.563556 12.003556 42.097778 18.033778 82.716445 18.033778s66.218667-6.030222 76.8-18.033778L697.173333 282.168889a38.257778 38.257778 0 1 1 54.072889 54.101333l-127.288889 127.260445v299.690666a47.786667 47.786667 0 0 1-47.786666 47.815111z m19.114666-525.880888a86.044444 86.044444 0 1 1-172.088889 0 86.044444 86.044444 0 0 1 172.088889 0z" fill="#FFFFFF" /></svg>