<?xml version="1.0" standalone="no"?><!DOCTYPE svg PUBLIC "-//W3C//DTD SVG 1.1//EN" "http://www.w3.org/Graphics/SVG/1.1/DTD/svg11.dtd"><svg class="icon" width="200px" height="200.00px" viewBox="0 0 1024 1024" version="1.1" xmlns="http://www.w3.org/2000/svg"><path d="M0 0h1024v1024H0z" fill="#FFFFFF" fill-opacity="0" /><path d="M512 85.333333c235.633778 0 426.666667 191.032889 426.666667 426.666667 0 235.633778-191.032889 426.666667-426.666667 426.666667-49.720889 0-97.422222-8.504889-141.795556-24.120889-75.719111 23.608889-119.409778 29.866667-131.043555 18.830222-8.903111-8.448-12.686222-42.808889-11.349333-103.082667A425.728 425.728 0 0 1 85.333333 512C85.333333 276.366222 276.366222 85.333333 512 85.333333z" fill="#0AC9AA" /><path d="M515.697778 763.847111c-110.506667-0.341333-208.241778-72.135111-242.176-177.891555A66.161778 66.161778 0 0 1 227.555556 521.585778v-6.684445a66.929778 66.929778 0 0 1 37.831111-61.44c15.559111-79.701333 67.043556-159.431111 136.533333-194.844444a241.863111 241.863111 0 0 1 61.724444-19.427556c33.507556-6.030222 62.577778-6.030222 97.564445-1.223111a237.795556 237.795556 0 0 1 66.190222 18.944c70.542222 34.588444 123.221333 114.062222 139.633778 193.905778a66.275556 66.275556 0 0 1 44.771555 64.085333v6.684445a65.336889 65.336889 0 0 1-52.878222 65.848889c-34.56 105.528889-132.750222 176.753778-243.228444 176.412444z" fill="#FFFFFF" /><path d="M519.594667 697.059556a69.489778 69.489778 0 0 0 66.389333-72.248889c0-2.531556-0.142222-5.205333-0.369778-7.594667a193.422222 193.422222 0 0 1-132.067555 0 78.933333 78.933333 0 0 0-0.369778 7.594667 69.489778 69.489778 0 0 0 66.417778 72.248889zM413.354667 470.044444a26.680889 26.680889 0 0 0-24.746667 16.497778 26.965333 26.965333 0 0 0 5.688889 29.297778 26.567111 26.567111 0 0 0 29.127111 5.859556 26.851556 26.851556 0 0 0 16.497778-24.803556 26.794667 26.794667 0 0 0-7.765334-19.000889 26.481778 26.481778 0 0 0-18.858666-7.850667h0.056889zM612.864 470.044444a26.680889 26.680889 0 0 0-24.746667 16.497778 26.965333 26.965333 0 0 0 5.688889 29.297778 26.567111 26.567111 0 0 0 29.098667 5.859556 26.88 26.88 0 0 0 8.732444-43.776 26.567111 26.567111 0 0 0-18.830222-7.879112h0.056889zM520.021333 367.331556a18.460444 18.460444 0 0 1-5.233777-25.543112c30.321778-45.937778 24.547556-81.180444 14.392888-102.684444-14.307556-30.293333-43.036444-46.364444-63.687111-48.554667a18.460444 18.460444 0 1 1 3.84-36.693333c37.973333 3.982222 75.434667 31.857778 93.212445 69.461333 20.081778 42.496 14.08 91.790222-16.952889 138.808889a18.432 18.432 0 0 1-25.571556 5.205334z" fill="#0AC9AA" /></svg>