<?xml version="1.0" standalone="no"?><!DOCTYPE svg PUBLIC "-//W3C//DTD SVG 1.1//EN" "http://www.w3.org/Graphics/SVG/1.1/DTD/svg11.dtd"><svg class="icon" width="200px" height="200.00px" viewBox="0 0 1024 1024" version="1.1" xmlns="http://www.w3.org/2000/svg"><path d="M0 0h1024v1024H0z" fill="#FFFFFF" fill-opacity="0" /><path d="M401.436444 910.193778a43.377778 43.377778 0 0 1-43.832888-32.227556l1.763555-47.160889H200.618667a144.867556 144.867556 0 0 1-101.632-41.443555A140.401778 140.401778 0 0 1 56.888889 689.294222V255.288889C56.888889 177.123556 121.230222 113.777778 200.618667 113.777778h622.762666C902.741333 113.777778 967.111111 177.123556 967.111111 255.288889V689.208889c0 37.546667-15.132444 73.528889-42.097778 100.067555a144.867556 144.867556 0 0 1-101.632 41.443556h-188.558222l-215.296 76.259556c-5.774222 2.104889-11.918222 3.185778-18.090667 3.214222z" fill="#00D2CA" /><path d="M312.888889 455.111111m28.444444 0l341.333334 0q28.444444 0 28.444444 28.444445l0 0q0 28.444444-28.444444 28.444444l-341.333334 0q-28.444444 0-28.444444-28.444444l0 0q0-28.444444 28.444444-28.444445Z" fill="#FFFFFF" /><path d="M540.444444 284.444444m0 28.444445l0 341.333333q0 28.444444-28.444444 28.444445l0 0q-28.444444 0-28.444444-28.444445l0-341.333333q0-28.444444 28.444444-28.444445l0 0q28.444444 0 28.444444 28.444445Z" fill="#FFFFFF" /></svg>