<?xml version="1.0" standalone="no"?><!DOCTYPE svg PUBLIC "-//W3C//DTD SVG 1.1//EN" "http://www.w3.org/Graphics/SVG/1.1/DTD/svg11.dtd"><svg class="icon" width="200px" height="200.00px" viewBox="0 0 1024 1024" version="1.1" xmlns="http://www.w3.org/2000/svg"><path d="M0 0h1024v1024H0z" fill="#FFFFFF" fill-opacity="0" /><path d="M0 0h1024v1024H0z" fill="#FFFFFF" fill-opacity="0" /><path d="M577.024 113.777778c125.724444 0.768 238.222222 80.497778 283.847111 201.102222 45.624889 120.576 15.075556 257.621333-76.999111 345.713778v192.796444a28.302222 28.302222 0 0 1-21.788444 26.624l-318.776889 58.168889a17.351111 17.351111 0 0 1-14.990223-3.384889 18.460444 18.460444 0 0 1-6.826666-14.108444v-91.648l-88.632889 13.681778c-35.413333-0.199111-64.085333-29.696-64.284445-66.161778v-116.736H239.388444a33.991111 33.991111 0 0 1-35.271111-16.469334 36.209778 36.209778 0 0 1 2.019556-39.822222l62.435555-122.794666v-52.48C270.392889 254.179556 407.893333 113.948444 577.024 113.777778z m153.656889 127.004444c-93.838222-83.285333-405.219556-50.944-355.356445 160.853334 15.530667 66.161778 122.652444 71.480889 122.652445 71.480888 336.497778 70.343111 364.202667-113.692444 232.704-230.798222z m-192.568889 43.036445a7.765333 7.765333 0 0 1 8.078222 0.056889l37.290667 25.201777 41.016889-16.526222c2.730667-0.938667 5.688889-0.284444 7.793778 1.706667a7.964444 7.964444 0 0 1 2.275555 7.68l-13.795555 43.264 29.098666 35.754666a7.964444 7.964444 0 0 1 1.024 8.106667 7.850667 7.850667 0 0 1-6.627555 4.693333h-44.743111l-23.864889 37.603556a7.822222 7.822222 0 0 1-13.795556 0l-15.644444-42.496-41.045334-10.922667a7.964444 7.964444 0 0 1-2.986666-13.539555l35.072-28.216889-2.986667-45.141333a7.936 7.936 0 0 1 3.811556-7.224889z m189.610667 98.787555c10.609778 0 19.228444 8.846222 19.228444 19.768889a19.512889 19.512889 0 0 1-19.228444 19.768889 19.484444 19.484444 0 0 1-19.2-19.768889c0-10.922667 8.590222-19.768889 19.2-19.768889z m-296.391111-83.825778a34.787556 34.787556 0 0 1 35.072 0c10.837333 6.314667 17.521778 17.976889 17.521777 30.634667 0 12.629333-6.684444 24.291556-17.521777 30.606222a34.787556 34.787556 0 0 1-35.072 0 35.413333 35.413333 0 0 1-17.521778-30.606222c0-12.657778 6.684444-24.32 17.521778-30.634667z m256.199111-45.738666c13.795556 0 24.974222 11.264 24.974222 25.201778s-11.178667 25.201778-24.974222 25.201777a25.088 25.088 0 0 1-24.974223-25.201777c0-13.937778 11.178667-25.201778 24.974223-25.201778z" fill="#48A8FF" /></svg>