<?xml version="1.0" standalone="no"?><!DOCTYPE svg PUBLIC "-//W3C//DTD SVG 1.1//EN" "http://www.w3.org/Graphics/SVG/1.1/DTD/svg11.dtd"><svg class="icon" width="200px" height="200.00px" viewBox="0 0 1024 1024" version="1.1" xmlns="http://www.w3.org/2000/svg"><path d="M0 0h1024v1024H0z" fill="#FFFFFF" fill-opacity="0" /><path d="M170.666667 85.333333m85.333333 0l540.444444 0q85.333333 0 85.333334 85.333334l0 682.666666q0 85.333333-85.333334 85.333334l-540.444444 0q-85.333333 0-85.333333-85.333334l0-682.666666q0-85.333333 85.333333-85.333334Z" fill="#48A8FF" /><path d="M113.777778 284.444444m42.666666 0l56.888889 0q42.666667 0 42.666667 42.666667l0 0q0 42.666667-42.666667 42.666667l-56.888889 0q-42.666667 0-42.666666-42.666667l0 0q0-42.666667 42.666666-42.666667Z" fill="#48A8FF" /><path d="M113.777778 483.555556m42.666666 0l56.888889 0q42.666667 0 42.666667 42.666666l0 0q0 42.666667-42.666667 42.666667l-56.888889 0q-42.666667 0-42.666666-42.666667l0 0q0-42.666667 42.666666-42.666666Z" fill="#48A8FF" /><path d="M113.777778 682.666667m42.666666 0l56.888889 0q42.666667 0 42.666667 42.666666l0 0q0 42.666667-42.666667 42.666667l-56.888889 0q-42.666667 0-42.666666-42.666667l0 0q0-42.666667 42.666666-42.666666Z" fill="#48A8FF" /><path d="M398.222222 597.333333m28.444445 0l227.555555 0q28.444444 0 28.444445 28.444445l0 0q0 28.444444-28.444445 28.444444l-227.555555 0q-28.444444 0-28.444445-28.444444l0 0q0-28.444444 28.444445-28.444445Z" fill="#FFFFFF" /><path d="M398.222222 711.111111m28.444445 0l227.555555 0q28.444444 0 28.444445 28.444445l0 0q0 28.444444-28.444445 28.444444l-227.555555 0q-28.444444 0-28.444445-28.444444l0 0q0-28.444444 28.444445-28.444445Z" fill="#FFFFFF" /><path d="M681.159111 284.074667c-38.712889-36.266667-100.408889-37.546667-140.743111-2.958223-40.334222-34.588444-102.030222-33.28-140.714667 2.958223a92.359111 92.359111 0 0 0 0 136.106666l117.873778 111.160889a33.166222 33.166222 0 0 0 45.681778 0l117.902222-111.047111a92.359111 92.359111 0 0 0 0-136.248889z" fill="#FFFFFF" /></svg>