<?xml version="1.0" standalone="no"?><!DOCTYPE svg PUBLIC "-//W3C//DTD SVG 1.1//EN" "http://www.w3.org/Graphics/SVG/1.1/DTD/svg11.dtd"><svg class="icon" width="200px" height="200.00px" viewBox="0 0 1024 1024" version="1.1" xmlns="http://www.w3.org/2000/svg"><path d="M0 0h1024v1024H0z" fill="#FFFFFF" fill-opacity="0" /><path d="M426.666667 885.646222c-128.512 46.506667-200.476444 62.407111-215.950223 47.729778-15.473778-14.677333-15.473778-107.719111 0-279.153778L426.666667 885.646222z" fill="#0AC9AA" /><path d="M512 512m-426.666667 0a426.666667 426.666667 0 1 0 853.333334 0 426.666667 426.666667 0 1 0-853.333334 0Z" fill="#0AC9AA" /><path d="M312.888889 512a199.111111 199.111111 0 1 0 398.222222 0 199.111111 199.111111 0 0 0-398.222222 0z" fill="#FFFFFF" /><path d="M398.222222 483.555556m28.444445 0l170.666666 0q28.444444 0 28.444445 28.444444l0 0q0 28.444444-28.444445 28.444444l-170.666666 0q-28.444444 0-28.444445-28.444444l0 0q0-28.444444 28.444445-28.444444Z" fill="#0AC9AA" /><path d="M540.444444 398.222222m0 28.444445l0 170.666666q0 28.444444-28.444444 28.444445l0 0q-28.444444 0-28.444444-28.444445l0-170.666666q0-28.444444 28.444444-28.444445l0 0q28.444444 0 28.444444 28.444445Z" fill="#0AC9AA" /></svg>