<?xml version="1.0" standalone="no"?><!DOCTYPE svg PUBLIC "-//W3C//DTD SVG 1.1//EN" "http://www.w3.org/Graphics/SVG/1.1/DTD/svg11.dtd"><svg class="icon" width="200px" height="200.00px" viewBox="0 0 1024 1024" version="1.1" xmlns="http://www.w3.org/2000/svg"><path d="M0 0h1024v1024H0z" fill="#FFFFFF" fill-opacity="0" /><path d="M170.666667 512m85.333333 0l512 0q85.333333 0 85.333333 85.333333l0 256q0 85.333333-85.333333 85.333334l-512 0q-85.333333 0-85.333333-85.333334l0-256q0-85.333333 85.333333-85.333333Z" fill="#FF7445" /><path d="M947.911111 465.152L561.322667 104.192A72.419556 72.419556 0 0 0 512 85.333333c-18.631111 0-36.408889 6.826667-49.322667 18.830223L76.088889 465.123556C34.360889 504.120889 65.137778 568.888889 125.411556 568.888889H898.56c60.273778 0 91.050667-64.796444 49.322667-103.736889z" fill="#FF7445" /><path d="M440.888889 424.903111a142.222222 142.222222 0 1 1 142.222222 246.328889 142.222222 142.222222 0 0 1-142.222222-246.328889z m28.444444 49.265778a85.333333 85.333333 0 1 0 85.333334 147.797333 85.333333 85.333333 0 0 0-85.333334-147.797333z" fill="#FFFFFF" /><path d="M544.256 660.821333l49.265778-28.444444 71.111111 123.164444-49.265778 28.444445z" fill="#FFFFFF" /></svg>