<?xml version="1.0" standalone="no"?><!DOCTYPE svg PUBLIC "-//W3C//DTD SVG 1.1//EN" "http://www.w3.org/Graphics/SVG/1.1/DTD/svg11.dtd"><svg class="icon" width="200px" height="200.00px" viewBox="0 0 1024 1024" version="1.1" xmlns="http://www.w3.org/2000/svg"><path d="M0 0h1024v1024H0z" fill="#FFFFFF" fill-opacity="0" /><path d="M198.456889 966.940444c-35.328 0.085333-54.357333-24.064-56.234667-62.065777 0-146.204444 99.754667-223.089778 240.355556-250.652445 35.754667-0.910222 82.858667 231.708444 126.577778 262.968889l2.844444 1.735111c44.487111-22.755556 92.899556-265.642667 129.422222-264.704 140.600889 27.591111 240.355556 104.476444 240.355556 250.652445-1.877333 38.001778-20.906667 62.151111-56.263111 62.065777-81.720889-0.256-177.180444 0.142222-313.514667 0.170667-136.334222 0-231.822222-0.426667-313.543111-0.170667z" fill="#00C5CD" /><path d="M701.411556 485.546667c-28.444444 98.417778-102.883556 168.675556-190.264889 168.675555-87.438222 0-161.934222-70.343111-190.293334-168.903111-13.084444-6.343111-29.070222-20.451556-35.043555-56.462222-7.793778-47.132444 20.224-58.424889 20.224-58.424889 1.991111-0.113778 4.096 1.564444 6.200889 4.465778 4.266667-13.027556 12.060444-24.490667 21.504-34.133334 35.754667-36.465778 101.546667-55.950222 180.906666-56.32 71.964444-0.312889 122.254222 4.494222 173.454223 55.239112 8.988444 8.931556 17.464889 22.812444 22.044444 37.091555 2.56-4.124444 5.12-6.542222 7.566222-6.4 0 0 28.359111 11.264 20.48 58.254222-6.257778 37.148444-23.324444 50.915556-36.778666 56.917334z" fill="#00C5CD" /><path d="M506.709333 56.888889C608.625778 56.888889 711.111111 115.939556 711.111111 115.939556V312.888889s-58.851556-72.277333-199.111111-72.277333c-141.112889 0-199.111111 72.049778-199.111111 72.049777V115.939556S401.038222 56.888889 506.709333 56.888889z m17.152 28.444444h-23.921777v44.771556H455.111111v24.263111h44.828445V199.111111h23.893333V154.368H568.888889v-24.263111h-45.027556V85.333333z" fill="#00C5CD" /></svg>