<?xml version="1.0" standalone="no"?><!DOCTYPE svg PUBLIC "-//W3C//DTD SVG 1.1//EN" "http://www.w3.org/Graphics/SVG/1.1/DTD/svg11.dtd"><svg class="icon" width="200px" height="200.00px" viewBox="0 0 1024 1024" version="1.1" xmlns="http://www.w3.org/2000/svg"><path d="M0 0h1024v1024H0z" fill="#FFFFFF" fill-opacity="0" /><path d="M170.666667 85.333333h682.666666a85.333333 85.333333 0 0 1 85.333334 85.333334v682.666666a85.333333 85.333333 0 0 1-85.333334 85.333334H85.333333V170.666667a85.333333 85.333333 0 0 1 85.333334-85.333334z" fill="#00C5CD" /><path d="M248.632889 475.306667a83.968 83.968 0 0 0 84.138667 83.825777 83.968 83.968 0 0 0 84.138666-83.797333 83.968 83.968 0 0 0-84.138666-83.825778 83.968 83.968 0 0 0-84.138667 83.825778zM590.563556 514.616889A129.308444 129.308444 0 1 0 589.255111 256a129.308444 129.308444 0 0 0 1.308445 258.616889z m197.233777 102.968889a170.211556 170.211556 0 0 0-69.063111-49.123556 343.722667 343.722667 0 0 0-128.170666-21.276444 340.280889 340.280889 0 0 0-128.142223 21.276444 171.861333 171.861333 0 0 0-69.262222 49.095111 128 128 0 0 0-29.952 74.808889 49.095111 49.095111 0 0 0 49.123556 49.095111h356.152889a49.095111 49.095111 0 0 0 49.095111-49.095111 127.516444 127.516444 0 0 0-29.781334-74.808889z" fill="#F7F8F8" /><path d="M342.926222 693.845333a128.312889 128.312889 0 0 1 29.952-74.808889c6.371556-7.168 13.340444-13.795556 20.764445-19.797333h-3.584c-4.750222 0-92.643556-5.916444-142.392889 51.541333a77.425778 77.425778 0 0 0-19.313778 50.574223c0.085333 23.608889 19.256889 42.723556 42.894222 42.723555h98.190222a18.659556 18.659556 0 0 0 11.946667-3.128889 49.095111 49.095111 0 0 1-38.456889-47.104z" fill="#F7F8F8" /></svg>