<?xml version="1.0" standalone="no"?><!DOCTYPE svg PUBLIC "-//W3C//DTD SVG 1.1//EN" "http://www.w3.org/Graphics/SVG/1.1/DTD/svg11.dtd"><svg class="icon" width="200px" height="200.00px" viewBox="0 0 1024 1024" version="1.1" xmlns="http://www.w3.org/2000/svg"><path d="M0 0h1024v1024H0z" fill="#FFFFFF" fill-opacity="0" /><path d="M512 512m-455.111111 0a455.111111 455.111111 0 1 0 910.222222 0 455.111111 455.111111 0 1 0-910.222222 0Z" fill="#00C5CD" /><path d="M461.994667 312.888889a177.379556 177.379556 0 0 1 176.412444 156.871111 141.340444 141.340444 0 0 0-23.836444-1.991111c-77.454222 0-140.231111 62.577778-140.231111 139.804444 0 20.508444 4.437333 40.021333 12.401777 57.571556-3.413333 0.483556-6.826667 0.853333-10.268444 1.137778l0.312889 0.284444h-4.266667a180.906667 180.906667 0 0 1-21.048889 0h-147.285333a10.040889 10.040889 0 0 1-8.305778-15.729778l16.924445-24.576c1.194667-5.404444 1.848889-11.235556 1.848888-17.294222 0-10.951111-2.104889-21.048889-5.688888-29.297778A175.559111 175.559111 0 0 1 284.444444 489.841778C284.444444 392.135111 363.946667 312.888889 461.994667 312.888889z" fill="#FFFFFF" /><path d="M611.896889 512C556.714667 512 512 557.283556 512 613.148444c0 55.836444 44.714667 101.12 99.896889 101.12 5.859556 0 11.605333-0.512 17.180444-1.479111h79.075556a6.144 6.144 0 0 0 6.115555-6.172444 6.229333 6.229333 0 0 0-1.080888-3.498667l-18.659556-27.562666c0.910222-4.323556 2.360889-8.220444 4.209778-11.406223h-0.568889c8.675556-14.990222 13.653333-32.426667 13.653333-51.000889 0-55.864889-44.743111-101.148444-99.925333-101.148444z" fill="#FFFFFF" /></svg>