<?xml version="1.0" standalone="no"?><!DOCTYPE svg PUBLIC "-//W3C//DTD SVG 1.1//EN" "http://www.w3.org/Graphics/SVG/1.1/DTD/svg11.dtd"><svg class="icon" width="200px" height="200.00px" viewBox="0 0 1024 1024" version="1.1" xmlns="http://www.w3.org/2000/svg"><path d="M0 0h1024v1024H0z" fill="#FFFFFF" fill-opacity="0" /><path d="M898.844444 142.222222C952.035556 142.222222 995.555556 183.836444 995.555556 234.666667v162.247111l-18.858667 6.912C930.275556 420.977778 898.844444 464.440889 898.844444 512c0 47.616 31.431111 91.050667 77.852445 108.145778l18.858667 6.940444v162.247111c0 50.858667-43.52 92.444444-96.711112 92.444445H125.155556C71.964444 881.777778 28.444444 840.192 28.444444 789.333333v-162.247111l18.858667-6.940444C93.724444 603.079111 125.155556 559.616 125.155556 512s-31.431111-91.050667-77.852445-108.174222L28.444444 396.913778V234.666667C28.444444 183.836444 71.964444 142.222222 125.155556 142.222222h773.688888z m-258.844444 398.222222a99.555556 99.555556 0 1 0 0 199.111112 99.555556 99.555556 0 0 0 0-199.111112z m73.130667-229.575111a28.444444 28.444444 0 0 0-40.220445 0L310.869333 672.910222a28.444444 28.444444 0 0 0 40.220445 40.220445l362.040889-362.040889a28.444444 28.444444 0 0 0 0-40.220445zM640 597.333333a42.666667 42.666667 0 1 1 0 85.333334 42.666667 42.666667 0 0 1 0-85.333334z m-256-312.888889a99.555556 99.555556 0 1 0 0 199.111112 99.555556 99.555556 0 0 0 0-199.111112z m0 56.888889a42.666667 42.666667 0 1 1 0 85.333334 42.666667 42.666667 0 0 1 0-85.333334z" fill="#0AC9AA" /></svg>