<?xml version="1.0" standalone="no"?><!DOCTYPE svg PUBLIC "-//W3C//DTD SVG 1.1//EN" "http://www.w3.org/Graphics/SVG/1.1/DTD/svg11.dtd"><svg class="icon" width="200px" height="200.00px" viewBox="0 0 1024 1024" version="1.1" xmlns="http://www.w3.org/2000/svg"><path d="M0 0h1024v1024H0z" fill="#FFFFFF" fill-opacity="0" /><path d="M512 512m-455.111111 0a455.111111 455.111111 0 1 0 910.222222 0 455.111111 455.111111 0 1 0-910.222222 0Z" fill="#FF7445" /><path d="M819.228444 577.621333c-9.472-12.515556-30.805333-22.926222-74.040888 2.986667 3.982222-18.204444-10.296889-29.496889-27.107556-29.496889-14.933333 0-32.369778 3.925333-46.279111 18.204445-19.911111-26.538667-40.391111-23.409778-80.241778 1.678222-12.714667 8.078222-25.6 15.900444-38.599111 23.466666a268.714667 268.714667 0 0 1-6.883556 3.811556c3.925333 0.853333 7.850667 1.536 12.231112 1.536 55.921778 0 100.067556 0 100.067555 49.265778 0 37.831111-43.320889 48.753778-66.190222 49.208889h-103.68c-42.723556 0-84.536889-45.169778-84.536889-45.169778s49.408 20.536889 84.536889 20.536889h103.424c0.142222 0 42.183111-1.678222 42.183111-24.576 0-20.992-11.349333-24.632889-75.832889-24.632889-42.097778 0-84.679111-25.173333-84.679111-25.173333s-42.581333-31.573333-55.665778-39.879112c-30.976-19.626667-55.694222-38.229333-109.738666-16.64C273.92 556.458667 199.111111 591.758222 199.111111 591.758222l68.949333 155.335111 35.185778-23.182222c19.484444-12.544 30.236444-14.734222 55.438222-1.592889 24.291556 12.686222 99.100444 52.167111 117.873778 61.383111 57.486222 28.273778 82.147556 2.986667 109.909334-13.283555 23.722667-13.824 191.544889-126.634667 209.237333-139.264 27.505778-19.768889 36.096-36.977778 23.523555-53.532445z" fill="#FFFFFF" /><path d="M652.714667 284.074667c-38.712889-36.266667-100.408889-37.546667-140.743111-2.958223-40.334222-34.588444-102.030222-33.28-140.714667 2.958223a92.359111 92.359111 0 0 0 0 136.106666l117.873778 111.160889a33.166222 33.166222 0 0 0 45.681777 0l117.902223-111.047111a92.359111 92.359111 0 0 0 0-136.248889z" fill="#FFFFFF" /></svg>