<?xml version="1.0" standalone="no"?><!DOCTYPE svg PUBLIC "-//W3C//DTD SVG 1.1//EN" "http://www.w3.org/Graphics/SVG/1.1/DTD/svg11.dtd"><svg class="icon" width="200px" height="200.00px" viewBox="0 0 1024 1024" version="1.1" xmlns="http://www.w3.org/2000/svg"><path d="M0 0h1024v1024H0z" fill="#FFFFFF" fill-opacity="0" /><path d="M824.888889 113.777778a85.333333 85.333333 0 0 1 85.333333 85.333333v682.666667a85.333333 85.333333 0 0 1-85.333333 85.333333H199.111111a85.333333 85.333333 0 0 1-85.333333-85.333333V199.111111a85.333333 85.333333 0 0 1 85.333333-85.333333h113.777778a113.777778 113.777778 0 0 0 113.777778 113.777778h170.666666a113.777778 113.777778 0 0 0 113.777778-113.777778h113.777778z" fill="#48A8FF" /><path d="M341.333333 28.444444m56.888889 0l227.555556 0q56.888889 0 56.888889 56.888889l0 56.888889q0 56.888889-56.888889 56.888889l-227.555556 0q-56.888889 0-56.888889-56.888889l0-56.888889q0-56.888889 56.888889-56.888889Z" fill="#48A8FF" /><path d="M676.152889 431.900444A121.656889 121.656889 0 0 0 512 428.373333a121.656889 121.656889 0 0 0-164.181333 3.527111 113.009778 113.009778 0 0 0 0 163.328l137.528889 133.404445a37.916444 37.916444 0 0 0 53.276444 0l137.557333-133.262222a113.009778 113.009778 0 0 0 0-163.470223z" fill="#FFFFFF" /></svg>